<svg width="32" height="32" viewBox="0 0 200 200" fill="none" xmlns="http://www.w3.org/2000/svg">
  <defs>
    <linearGradient id="abstractGradientFav" x1="0%" y1="0%" x2="100%" y2="100%">
      <stop offset="0%" stop-color="#3B6BFF" />
      <stop offset="50%" stop-color="#1A45D1" />
      <stop offset="100%" stop-color="#001A8C" />
    </linearGradient>
  </defs>
  <rect x="2" y="2" width="196" height="196" rx="40" fill="white" stroke="#000000" stroke-width="4" />
  <path 
    d="M 65 140 
       L 85 110 
       Q 88 105 95 105 
       L 105 105 
       Q 112 105 115 110 
       L 135 140
       Q 138 145 145 145
       L 155 145
       Q 162 145 165 140
       L 175 125
       Q 178 120 175 115
       L 155 85
       L 125 55
       Q 120 48 112 48
       L 100 48
       Q 95 48 90 55
       L 40 125
       Q 35 132 42 138
       L 50 142
       Q 55 145 60 140
       Z"
    fill="url(#abstractGradientFav)"
    stroke-linejoin="round"
    stroke-linecap="round"
  />
</svg>
